<svg xmlns="http://www.w3.org/2000/svg" width="56" height="56" viewBox="0 0 56 56" fill="none">
<rect width="56" height="56" fill="white"/>
<path d="M15.5469 21.3884L9.17825 18.146C8.67985 19.1246 8.25565 20.1508 7.91825 21.1952L14.7181 23.3946C14.9407 22.7072 15.2193 22.0324 15.5469 21.3884Z" fill="black"/>
<path d="M20.9577 15.6748L24.4857 21.7522C25.0009 21.454 25.5525 21.223 26.1251 21.069L24.2995 14.2832C24.7643 14.1586 25.2361 14.055 25.7107 13.9794L24.5893 6.92205C23.5043 7.09425 22.4263 7.35465 21.3833 7.69485L23.5645 14.3798C22.8701 14.6066 22.1953 14.888 21.5443 15.2198L18.3383 8.96185C17.3639 9.46165 16.4203 10.0426 15.5341 10.6894L19.7467 16.4616C20.1345 16.1788 20.5405 15.917 20.9563 15.6748H20.9577Z" fill="black"/>
<path d="M39.8862 20.7091L33.8102 24.2399C34.1098 24.7551 34.3394 25.3067 34.4934 25.8793L41.2792 24.0509C41.4038 24.5157 41.5074 24.9875 41.583 25.4607L48.6404 24.3365C48.4682 23.2515 48.2078 22.1735 47.8662 21.1305L41.1826 23.3159C40.9558 22.6215 40.6744 21.9467 40.3412 21.2957L46.5978 18.0855C46.098 17.1111 45.517 16.1689 44.8688 15.2827L39.098 19.4981C39.3808 19.8859 39.644 20.2919 39.8848 20.7077L39.8862 20.7091Z" fill="black"/>
<path d="M37.4079 8.93108C36.4279 8.43268 35.4017 8.00988 34.3573 7.67248L32.1621 14.4737C32.8495 14.6949 33.5243 14.9735 34.1697 15.3011L37.4079 8.92968V8.93108Z" fill="black"/>
<path d="M34.8711 15.5504L31.3025 21.7426C31.8191 22.0408 32.2951 22.4048 32.7193 22.8276L42.7265 12.7868C41.9509 12.0126 41.1067 11.2944 40.2205 10.6518L36.0933 16.3428C35.6999 16.0572 35.2925 15.7926 34.8711 15.5504Z" fill="black"/>
<path d="M15.7962 20.6869L21.987 24.2583C22.2852 23.7417 22.6506 23.2657 23.0734 22.8415L13.0354 12.8315C12.2612 13.6071 11.543 14.4499 10.899 15.3361L16.5886 19.4661C16.303 19.8595 16.0384 20.2669 15.7948 20.6869H15.7962Z" fill="black"/>
<path d="M30.0705 13.859L31.1499 6.91082C30.0831 6.74562 28.9911 6.66162 27.9033 6.66162H27.8865V20.8366H27.9033C28.5011 20.8366 29.0919 20.9136 29.6617 21.0648L31.4957 14.1572C31.0267 14.0326 30.5507 13.9346 30.0719 13.859H30.0705Z" fill="black"/>
<path d="M21.3079 25.9006L14.4017 24.0624C14.2771 24.5314 14.1777 25.0074 14.1035 25.4862L7.15532 24.404C6.98872 25.475 6.90332 26.5712 6.90332 27.6618H21.0783C21.0783 27.0626 21.1553 26.4704 21.3065 25.9006H21.3079Z" fill="black"/>
<path d="M40.2594 33.935L46.628 37.1774C47.1264 36.1988 47.5506 35.1726 47.888 34.1282L41.0882 31.9288C40.8656 32.6162 40.587 33.291 40.2594 33.935Z" fill="black"/>
<path d="M34.8486 39.6485L31.3206 33.5711C30.8054 33.8693 30.2538 34.1003 29.6812 34.2543L31.5068 41.0401C31.042 41.1647 30.5702 41.2683 30.0956 41.3439L31.217 48.4027C32.302 48.2305 33.38 47.9701 34.423 47.6299L32.2418 40.9449C32.9362 40.7181 33.611 40.4367 34.262 40.1049L37.468 46.3629C38.4424 45.8631 39.386 45.2821 40.2722 44.6353L36.0596 38.8631C35.6718 39.1459 35.2658 39.4077 34.85 39.6499L34.8486 39.6485Z" fill="black"/>
<path d="M15.9209 34.614L21.9969 31.0832C21.6973 30.568 21.4677 30.0164 21.3137 29.4438L14.5279 31.2722C14.4033 30.8074 14.2997 30.3356 14.2241 29.8624L7.16532 30.9866C7.33752 32.0716 7.59792 33.1496 7.93952 34.1926L14.6231 32.0072C14.8499 32.7016 15.1313 33.3764 15.4645 34.0274L9.20792 37.2376C9.70772 38.212 10.2887 39.1542 10.9369 40.0404L16.7077 35.825C16.4249 35.4372 16.1617 35.0312 15.9209 34.6154V34.614Z" fill="black"/>
<path d="M18.3988 46.3922C19.3788 46.8906 20.405 47.3134 21.4494 47.6508L23.6446 40.8496C22.9572 40.6284 22.2824 40.3498 21.637 40.0222L18.3988 46.3936V46.3922Z" fill="black"/>
<path d="M20.9351 39.773L24.5037 33.5808C23.9871 33.2826 23.5111 32.9186 23.0869 32.4958L13.0811 42.5366C13.8567 43.3108 14.7009 44.029 15.5871 44.6716L19.7143 38.9806C20.1077 39.2662 20.5151 39.5308 20.9365 39.773H20.9351Z" fill="black"/>
<path d="M40.0121 34.6363L33.8213 31.0649C33.5231 31.5815 33.1577 32.0575 32.7349 32.4817L42.7715 42.4931C43.5457 41.7175 44.2639 40.8747 44.9079 39.9885L39.2183 35.8585C39.5039 35.4651 39.7685 35.0577 40.0121 34.6377V34.6363Z" fill="black"/>
<path d="M26.1449 34.2584L24.3109 41.166C24.7799 41.2906 25.2559 41.3886 25.7347 41.4642L24.6553 48.4124C25.7221 48.5776 26.8141 48.6616 27.9019 48.6616H27.9187V34.4866H27.9019C27.3041 34.4866 26.7133 34.4096 26.1435 34.2584H26.1449Z" fill="black"/>
<path d="M34.7283 27.6616C34.7283 28.2608 34.6513 28.853 34.5001 29.4228L41.4063 31.261C41.5309 30.792 41.6303 30.316 41.7045 29.8372L48.6513 30.9208C48.8179 29.8498 48.9033 28.7536 48.9033 27.663H34.7283V27.6616Z" fill="black"/>
</svg>